/* XPM */
static char * box_xpm[] = {
"48 48 4 1",
" 	c #000000",
".	c #3A3F00",
"+	c #655000",
"@	c #B17449",
"                                                ",
"                                                ",
"    ........................................    ",
"    ........................................    ",
"  ....++++++++++++++++++++++++++++++++++++....  ",
"  ....++++++++++++++++++++++++++++++++++++....  ",
"  ..++++@@@@@@@@@@@@@@@@@@@@@@@@@@@@@@@@++++..  ",
"  ..++++@@@@@@@@@@@@@@@@@@@@@@@@@@@@@@@@++++..  ",
"  ..++@@@@                            @@@@++..  ",
"  ..++@@@@                            @@@@++..  ",
"  ..++@@                                @@++..  ",
"  ..++@@                                @@++..  ",
"  ..++@@                                @@++..  ",
"  ..++@@                                @@++..  ",
"  ..++@@                                @@++..  ",
"  ..++@@                                @@++..  ",
"  ..++@@                                @@++..  ",
"  ..++@@                                @@++..  ",
"  ..++@@                                @@++..  ",
"  ..++@@                                @@++..  ",
"  ..++@@                                @@++..  ",
"  ..++@@                                @@++..  ",
"  ..++@@                                @@++..  ",
"  ..++@@                                @@++..  ",
"  ..++@@                                @@++..  ",
"  ..++@@                                @@++..  ",
"  ..++@@                                @@++..  ",
"  ..++@@                                @@++..  ",
"  ..++@@                                @@++..  ",
"  ..++@@                                @@++..  ",
"  ..++@@                                @@++..  ",
"  ..++@@                                @@++..  ",
"  ..++@@                                @@++..  ",
"  ..++@@                                @@++..  ",
"  ..++@@                                @@++..  ",
"  ..++@@                                @@++..  ",
"  ..++@@                                @@++..  ",
"  ..++@@                                @@++..  ",
"  ..++@@@@                            @@@@++..  ",
"  ..++@@@@                            @@@@++..  ",
"  ..++++@@@@@@@@@@@@@@@@@@@@@@@@@@@@@@@@++++..  ",
"  ..++++@@@@@@@@@@@@@@@@@@@@@@@@@@@@@@@@++++..  ",
"  ....++++++++++++++++++++++++++++++++++++....  ",
"  ....++++++++++++++++++++++++++++++++++++....  ",
"    ........................................    ",
"    ........................................    ",
"                                                ",
"                                                "};
