/* XPM */
static char *result[] = {
/* columns rows colors chars-per-pixel */
"48 48 10 1 ",
"  c black",
". c #F43A00",
"X c #FF3D00",
"o c #B66600",
"O c #FF7900",
"+ c #F46857",
"@ c #FFB400",
"# c #0088FF",
"$ c cyan",
"% c None",
/* pixels */
"%%%%%%%%%%%%%%%%%%%%%%%%%%%%%%%%%%%%%%%%%%%%%%%%",
"%%%%%%%%%%%%%%%%%%%%%%%%%%%%%%%%%%%%%%%%%%%%%%%%",
"%%%%%%%%%%%%%%%%%%%%%%%%%%%%%%%%%%%%%%%%%%%%%%%%",
"%%%%%%%%%%%%%%%%%%%%%%%%%%%%%%%%%%%%%%%%%%%%%%%%",
"%%%%%%%%%%%%%%%%%%%%%%%%%%%%%%%%%%%%%%%%%%%%%%%%",
"%%%%%%%%%%%%%%%%%%%%%%%%%%%%%%%%%%%%%%%%%%%%%%%%",
"%%%%%%%%%%%%%%%%%%%%%%%%%%%%%%%%%%%%%%%%%%%%%%%%",
"%%%%%%%%%%%%%%%%%%%%%%%%%%%%%%%%%%%%%%%%%%%%%%%%",
"%%%%%%%%%%%%%%%%%%%%%%%%%%%%%%%%%%%%%%%%%%%%%%%%",
"%%%%%%%%%%%%%%%%%%%%%%%%%%%%%%%%%%%%%%%%%%%%%%%%",
"%%%%%%%%%%%%%%%%%%%%%%XXXX%%%%%%%%%%%%%%%%%%%%%%",
"%%%%%%%%%%%%%%%%%%%%%%XXXX%%%%%%%%%%%%%%%%%%%%%%",
"%%%%%%%%%%%%%%%%%%%%%%@@@@%%%%%%%%%%%%%%%%%%%%%%",
"%%%%%%%%%%%%%%%%%%%%%%@@@@%%%%%%%%%%%%%%%%%%%%%%",
"%%%%%%%%%%%%%%%%%%%%%%@@@@%%%%%%%%%%%%%%%%%%%%%%",
"%%%%%%%%%%%%%%%%%%%%%%@@@@%%%%%%%%%%%%%%%%%%%%%%",
"%%%%%%%%%%%%%%%%%%%%%%OOOO%%%%%%%%%%%%%%%%%%%%%%",
"%%%%%%%%%%%%%%%%%%%%%%OOOO%%%%%%%%%%%%%%%%%%%%%%",
"%%%%%%%%%%%%%%%%XX$$%%@@@@%%%%XX%%%%%%%%%%%%%%%%",
"%%%%%%%%%%%%%%%%XX$$%%@@@@%%%%XX%%%%%%%%%%%%%%%%",
"%%%%%%%%%%%%%%%%%%@@##@@@@%%@@%%%%%%%%%%%%%%%%%%",
"%%%%%%%%%%%%%%%%%%@@##@@@@%%@@%%%%%%%%%%%%%%%%%%",
"%%%%%%%%%%%%%%%%%%%%%%oooo%%%%%%%%%%%%%%%%%%%%%%",
"%%%%%%%%%%%%%%%%%%%%%%oooo%%%%%%%%%%%%%%%%%%%%%%",
"%%%%%%%%%%%%XX@@OO@@##..++  @@OO@@XX%%%%%%%%%%%%",
"%%%%%%%%%%%%XX@@OO@@##..++  @@OO@@XX%%%%%%%%%%%%",
"%%%%%%%%%%%%%%%%%%%%%%oooo%%%%%%%%%%%%%%%%%%%%%%",
"%%%%%%%%%%%%%%%%%%%%%%oooo%%%%%%%%%%%%%%%%%%%%%%",
"%%%%%%%%%%%%%%%%%%@@##@@@@%%@@%%%%%%%%%%%%%%%%%%",
"%%%%%%%%%%%%%%%%%%@@##@@@@%%@@%%%%%%%%%%%%%%%%%%",
"%%%%%%%%%%%%%%%%XX$$%%@@@@%%%%XX%%%%%%%%%%%%%%%%",
"%%%%%%%%%%%%%%%%XX$$%%@@@@%%%%XX%%%%%%%%%%%%%%%%",
"%%%%%%%%%%%%%%%%%%%%%%OOOO%%%%%%%%%%%%%%%%%%%%%%",
"%%%%%%%%%%%%%%%%%%%%%%OOOO%%%%%%%%%%%%%%%%%%%%%%",
"%%%%%%%%%%%%%%%%%%%%%%@@@@%%%%%%%%%%%%%%%%%%%%%%",
"%%%%%%%%%%%%%%%%%%%%%%@@@@%%%%%%%%%%%%%%%%%%%%%%",
"%%%%%%%%%%%%%%%%%%%%%%@@@@%%%%%%%%%%%%%%%%%%%%%%",
"%%%%%%%%%%%%%%%%%%%%%%@@@@%%%%%%%%%%%%%%%%%%%%%%",
"%%%%%%%%%%%%%%%%%%%%%%XXXX%%%%%%%%%%%%%%%%%%%%%%",
"%%%%%%%%%%%%%%%%%%%%%%XXXX%%%%%%%%%%%%%%%%%%%%%%",
"%%%%%%%%%%%%%%%%%%%%%%%%%%%%%%%%%%%%%%%%%%%%%%%%",
"%%%%%%%%%%%%%%%%%%%%%%%%%%%%%%%%%%%%%%%%%%%%%%%%",
"%%%%%%%%%%%%%%%%%%%%%%%%%%%%%%%%%%%%%%%%%%%%%%%%",
"%%%%%%%%%%%%%%%%%%%%%%%%%%%%%%%%%%%%%%%%%%%%%%%%",
"%%%%%%%%%%%%%%%%%%%%%%%%%%%%%%%%%%%%%%%%%%%%%%%%",
"%%%%%%%%%%%%%%%%%%%%%%%%%%%%%%%%%%%%%%%%%%%%%%%%",
"%%%%%%%%%%%%%%%%%%%%%%%%%%%%%%%%%%%%%%%%%%%%%%%%",
"%%%%%%%%%%%%%%%%%%%%%%%%%%%%%%%%%%%%%%%%%%%%%%%%"
};
