/* XPM */
static char *result[] = {
/* columns rows colors chars-per-pixel */
"48 48 12 1 ",
"  c black",
". c #FF3D00",
"X c #FF7900",
"o c #FFB400",
"O c #007BB6",
"+ c #0088FF",
"@ c #00C3FF",
"# c cyan",
"$ c #25FCFB",
"% c #969698",
"& c #D2BE98",
"* c None",
/* pixels */
"************************************************",
"************************************************",
"************************************************",
"************************************************",
"************************************************",
"************************************************",
"************************************************",
"************************************************",
"************************************************",
"************************************************",
"**********************..##**********************",
"**********************..##**********************",
"**********************oo++**********************",
"**********************oo++**********************",
"**********************oo++**********************",
"**********************oo++**********************",
"**********************XX@@**********************",
"**********************XX@@**********************",
"****************..##**&&++****##****************",
"****************..##**&&++****##****************",
"******************oo++oo++**++******************",
"******************oo++oo++**++******************",
"**********************%%OO**********************",
"**********************%%OO**********************",
"************..##++@@++  $$  ++@@++##************",
"************..##++@@++  $$  ++@@++##************",
"**********************%%OO**********************",
"**********************%%OO**********************",
"******************oo++oo++**++******************",
"******************oo++oo++**++******************",
"****************..##**&&++****##****************",
"****************..##**&&++****##****************",
"**********************XX@@**********************",
"**********************XX@@**********************",
"**********************oo++**********************",
"**********************oo++**********************",
"**********************oo++**********************",
"**********************oo++**********************",
"**********************..##**********************",
"**********************..##**********************",
"************************************************",
"************************************************",
"************************************************",
"************************************************",
"************************************************",
"************************************************",
"************************************************",
"************************************************"
};
