/* XPM */
static char *result[] = {
/* columns rows colors chars-per-pixel */
"48 48 6 1 ",
"  c black",
". c #020202",
"X c #9F001A",
"o c #B2004A",
"O c #C23064",
"+ c #C55DAA",
/* pixels */
"................................................",
"................................................",
"....XXXXXXXXXXXXXXXXXXXXXXXXXXXXXXXXXXXXXXXX....",
"....XXXXXXXXXXXXXXXXXXXXXXXXXXXXXXXXXXXXXXXX....",
"..XXXXooooooooooooooooooooooooooooooooooooXXXX..",
"..XXXXooooooooooooooooooooooooooooooooooooXXXX..",
"..XXoooo                                ooooXX..",
"..XXoooo                                ooooXX..",
"..XXoo    ............................    ooXX..",
"..XXoo    ............................    ooXX..",
"..XXoo  ................................  ooXX..",
"..XXoo  ................................  ooXX..",
"..XXoo  ........................XX......  ooXX..",
"..XXoo  ........................XX......  ooXX..",
"..XXoo  ......................XX  ..XX..  ooXX..",
"..XXoo  ......................XX  ..XX..  ooXX..",
"..XXoo  ..............  ......XX  XX....  ooXX..",
"..XXoo  ..............  ......XX  XX....  ooXX..",
"..XXoo  ..............OO  ....XX  ..XX..  ooXX..",
"..XXoo  ..............OO  ....XX  ..XX..  ooXX..",
"..XXoo  ............OO  ..OO..XX  XX....  ooXX..",
"..XXoo  ............OO  ..OO..XX  XX....  ooXX..",
"..XXoo  ....    ....OO  OO....XX  ..XX..  ooXX..",
"..XXoo  ....    ....OO  OO....XX  ..XX..  ooXX..",
"..XXoo  ..  ++......OO    OO..XX  XX....  ooXX..",
"..XXoo  ..  ++......OO    OO..XX  XX....  ooXX..",
"..XXoo  ..++  ..++..OO  OO....XX  ..XX..  ooXX..",
"..XXoo  ..++  ..++..OO  OO....XX  ..XX..  ooXX..",
"..XXoo  ..++  ++....OO    OO..XX  XX....  ooXX..",
"..XXoo  ..++  ++....OO    OO..XX  XX....  ooXX..",
"..XXoo  ..++  ..++..OO  OO....XX  ..XX..  ooXX..",
"..XXoo  ..++  ..++..OO  OO....XX  ..XX..  ooXX..",
"..XXoo  ..++  ++....OO  ..OO..XX  XX....  ooXX..",
"..XXoo  ..++  ++....OO  ..OO..XX  XX....  ooXX..",
"..XXoo  ..++  ..++..OO  OO....XX  ..XX..  ooXX..",
"..XXoo  ..++  ..++..OO  OO....XX  ..XX..  ooXX..",
"..XXoo  ..++  ++....OO  ..OO..XX  XX....  ooXX..",
"..XXoo  ..++  ++....OO  ..OO..XX  XX....  ooXX..",
"..XXoo    ++....++..OO..OO....XX....XX    ooXX..",
"..XXoo    ++....++..OO..OO....XX....XX    ooXX..",
"..XXoo                                  ooooXX..",
"..XXoo                                  ooooXX..",
"..XXXXooooooooooooooooooooooooooooooooooooXXXX..",
"..XXXXooooooooooooooooooooooooooooooooooooXXXX..",
"....XXXXXXXXXXXXXXXXXXXXXXXXXXXXXXXXXXXXXXXX....",
"....XXXXXXXXXXXXXXXXXXXXXXXXXXXXXXXXXXXXXXXX....",
"................................................",
"................................................"
};
