/* XPM */
static char *result[] = {
/* columns rows colors chars-per-pixel */
"48 48 5 1 ",
"  c black",
". c #020202",
"X c #2FB414",
"o c #5CC310",
"O c #A2D725",
/* pixels */
"................................................",
"................................................",
"....XXXXXXXXXXXXXXXXXXXXXXXXXXXXXXXXXXXXXXXX....",
"....XXXXXXXXXXXXXXXXXXXXXXXXXXXXXXXXXXXXXXXX....",
"..XXXXooooooooooooooooooooooooooooooooooooXXXX..",
"..XXXXooooooooooooooooooooooooooooooooooooXXXX..",
"..XXoooo                                ooooXX..",
"..XXoooo                                ooooXX..",
"..XXoo    ............................    ooXX..",
"..XXoo    ............................    ooXX..",
"..XXoo  ................................  ooXX..",
"..XXoo  ................................  ooXX..",
"..XXoo  ........................OO......  ooXX..",
"..XXoo  ........................OO......  ooXX..",
"..XXoo  ......................OO  ..OO..  ooXX..",
"..XXoo  ......................OO  ..OO..  ooXX..",
"..XXoo  ..............  ......OO  OO....  ooXX..",
"..XXoo  ..............  ......OO  OO....  ooXX..",
"..XXoo  ..............oo  ....OO  ..OO..  ooXX..",
"..XXoo  ..............oo  ....OO  ..OO..  ooXX..",
"..XXoo  ............oo  ..oo..OO  OO....  ooXX..",
"..XXoo  ............oo  ..oo..OO  OO....  ooXX..",
"..XXoo  ....    ....oo  oo....OO  ..OO..  ooXX..",
"..XXoo  ....    ....oo  oo....OO  ..OO..  ooXX..",
"..XXoo  ..  XX......oo    oo..OO  OO....  ooXX..",
"..XXoo  ..  XX......oo    oo..OO  OO....  ooXX..",
"..XXoo  ..XX  ..XX..oo  oo....OO  ..OO..  ooXX..",
"..XXoo  ..XX  ..XX..oo  oo....OO  ..OO..  ooXX..",
"..XXoo  ..XX  XX....oo    oo..OO  OO....  ooXX..",
"..XXoo  ..XX  XX....oo    oo..OO  OO....  ooXX..",
"..XXoo  ..XX  ..XX..oo  oo....OO  ..OO..  ooXX..",
"..XXoo  ..XX  ..XX..oo  oo....OO  ..OO..  ooXX..",
"..XXoo  ..XX  XX....oo  ..oo..OO  OO....  ooXX..",
"..XXoo  ..XX  XX....oo  ..oo..OO  OO....  ooXX..",
"..XXoo  ..XX  ..XX..oo  oo....OO  ..OO..  ooXX..",
"..XXoo  ..XX  ..XX..oo  oo....OO  ..OO..  ooXX..",
"..XXoo  ..XX  XX....oo  ..oo..OO  OO....  ooXX..",
"..XXoo  ..XX  XX....oo  ..oo..OO  OO....  ooXX..",
"..XXoo    XX....XX..oo..oo....OO....OO    ooXX..",
"..XXoo    XX....XX..oo..oo....OO....OO    ooXX..",
"..XXoo                                  ooooXX..",
"..XXoo                                  ooooXX..",
"..XXXXooooooooooooooooooooooooooooooooooooXXXX..",
"..XXXXooooooooooooooooooooooooooooooooooooXXXX..",
"....XXXXXXXXXXXXXXXXXXXXXXXXXXXXXXXXXXXXXXXX....",
"....XXXXXXXXXXXXXXXXXXXXXXXXXXXXXXXXXXXXXXXX....",
"................................................",
"................................................"
};
