/* XPM */
static char *result[] = {
/* columns rows colors chars-per-pixel */
"48 48 4 1 ",
"  c black",
". c #232BA3",
"X c #214FB1",
"o c #358BC5",
/* pixels */
"                                                ",
"                                                ",
"    ........................................    ",
"    ........................................    ",
"  ....XXXXXXXXXXXXXXXXXXXXXXXXXXXXXXXXXXXX....  ",
"  ....XXXXXXXXXXXXXXXXXXXXXXXXXXXXXXXXXXXX....  ",
"  ..XXXXooooooooooooooooooooooooooooooooXXXX..  ",
"  ..XXXXooooooooooooooooooooooooooooooooXXXX..  ",
"  ..XXoooo                            ooooXX..  ",
"  ..XXoooo                            ooooXX..  ",
"  ..XXoo                                ooXX..  ",
"  ..XXoo                                ooXX..  ",
"  ..XXoo                                ooXX..  ",
"  ..XXoo                                ooXX..  ",
"  ..XXoo                                ooXX..  ",
"  ..XXoo                                ooXX..  ",
"  ..XXoo                                ooXX..  ",
"  ..XXoo                                ooXX..  ",
"  ..XXoo                                ooXX..  ",
"  ..XXoo                                ooXX..  ",
"  ..XXoo                                ooXX..  ",
"  ..XXoo                                ooXX..  ",
"  ..XXoo                                ooXX..  ",
"  ..XXoo                                ooXX..  ",
"  ..XXoo                                ooXX..  ",
"  ..XXoo                                ooXX..  ",
"  ..XXoo                                ooXX..  ",
"  ..XXoo                                ooXX..  ",
"  ..XXoo                                ooXX..  ",
"  ..XXoo                                ooXX..  ",
"  ..XXoo                                ooXX..  ",
"  ..XXoo                                ooXX..  ",
"  ..XXoo                                ooXX..  ",
"  ..XXoo                                ooXX..  ",
"  ..XXoo                                ooXX..  ",
"  ..XXoo                                ooXX..  ",
"  ..XXoo                                ooXX..  ",
"  ..XXoo                                ooXX..  ",
"  ..XXoooo                            ooooXX..  ",
"  ..XXoooo                            ooooXX..  ",
"  ..XXXXooooooooooooooooooooooooooooooooXXXX..  ",
"  ..XXXXooooooooooooooooooooooooooooooooXXXX..  ",
"  ....XXXXXXXXXXXXXXXXXXXXXXXXXXXXXXXXXXXX....  ",
"  ....XXXXXXXXXXXXXXXXXXXXXXXXXXXXXXXXXXXX....  ",
"    ........................................    ",
"    ........................................    ",
"                                                ",
"                                                "
};
