/* XPM */
static char *result[] = {
/* columns rows colors chars-per-pixel */
"48 48 12 1 ",
"  c gray33",
". c #800000",
"X c #A33030",
"o c red",
"O c #EC3D3D",
"+ c #198000",
"@ c #FF9900",
"# c gray66",
"$ c #C39A82",
"% c #D9B69C",
"& c white",
"* c None",
/* pixels */
"************************************************",
"************************************************",
"************************************************",
"************************************************",
"************************************************",
"************************************************",
"************************************************",
"************************************************",
"************************************************",
"************************************************",
"************************************************",
"************************************************",
"************************************************",
"************************************************",
"************************..ooXX..****************",
"************************..ooXX..****************",
"**********************..ooOOOOXX..**************",
"**********************..ooOOOOXX..**************",
"********************ooooooooXXXXXXXX************",
"********************ooooooooXXXXXXXX************",
"********************ooooooooXXXXXXXX************",
"********************ooooooooXXXXXXXX************",
"********************oo..OOooXXXX..XX************",
"********************oo..OOooXXXX..XX************",
"********************OO##OOXXXXXX##..************",
"********************OO##OOXXXXXX##..************",
"**********************&&++OO..++##**OO**********",
"**********************&&++OO..++##**OO**********",
"********************..%%%%%%$$$$$$..OOOOOO**XX**",
"********************..%%%%%%$$$$$$..OOOOOO**XX**",
"******************..OOooOOOO....XX..OO....OO..**",
"******************..OOooOOOO....XX..OO....OO..**",
"******************%%..OOooooXXXXXX..OO..oo..XX**",
"******************%%..OOooooXXXXXX..OO..oo..XX**",
"****************%%%%....ooooXXXX....OO..##ooXX**",
"****************%%%%....ooooXXXX....OO..##ooXX**",
"**********@@@@%%%%%%**&&&&&&######**OO..&&##  **",
"**********@@@@%%%%%%**&&&&&&######**OO..&&##  **",
"******      @@%%%%**OOoo..OO..XX..XXOO..oo&&##**",
"******      @@%%%%**OOoo..OO..XX..XXOO..oo&&##**",
"&&&&####****@@****OOoo..OOoo....XX..XXOO..ooXX**",
"&&&&####****@@****OOoo..OOoo....XX..XXOO..ooXX**",
"********************&&&&&&XX..######**OO..oo..**",
"********************&&&&&&XX..######**OO..oo..**",
"**********************..oo****XX..******OO..****",
"**********************..oo****XX..******OO..****",
"********************oooooo****XXXXXX************",
"********************oooooo****XXXXXX************"
};
