/* XPM */
static char *result[] = {
/* columns rows colors chars-per-pixel */
"48 48 4 1 ",
"  c #925D00",
". c #FF7919",
"X c #FFD6B7",
"o c None",
/* pixels */
"oooooooooooooooooooooooooooooooooooooooooooooooo",
"oooooooooooooooooooooooooooooooooooooooooooooooo",
"oooooooooooooooooooooooooooooooooooooooooooooooo",
"oooooooooooooooooooooooooooooooooooooooooooooooo",
"oooooooooooooooooooooooooooooooooooooooooooooooo",
"oooooooooooooooooooooooooooooooooooooooooooooooo",
"oooooooooooooooooooooooooooooooooooooooooooooooo",
"oooooooooooooooooooooooooooooooooooooooooooooooo",
"oooooooooooooooooooooooooooooooooooooooooooooooo",
"oooooooooooooooooooooooooooooooooooooooooooooooo",
"oooooooooooooooooooooooooooooooooooooooooooooooo",
"oooooooooooooooooooooooooooooooooooooooooooooooo",
"oooooooooooooooooooooooooooooooooooooooooooooooo",
"oooooooooooooooooooooooooooooooooooooooooooooooo",
"oooooooooooooooooooooooooooooooooooooooooooooooo",
"oooooooooooo        oooooooooooooooooooooooooooo",
"oooooooooooo        oooooooooooooooooooooooooooo",
"oooooooooo  XXXXXX..  oooooooooooooooooooooooooo",
"oooooooooo  XXXXXX..  oooooooooooooooooooooooooo",
"oooooooo  XXXX........  oooooooooooooooooooooooo",
"oooooooo  XXXX........  oooooooooooooooooooooooo",
"oooooooo  XX............  oooooooooooooooooooooo",
"oooooooo  XX............  oooooooooooooooooooooo",
"oooooooo  XX..............  oooooooooooooooooooo",
"oooooooo  XX..............  oooooooooooooooooooo",
"oooooooo  XX................  oooooooooooooooooo",
"oooooooo  XX................  oooooooooooooooooo",
"oooooooo  ....................    oooooooooooooo",
"oooooooo  ....................    oooooooooooooo",
"oooooooooo  ............XXXXXXXXXX    oooooooooo",
"oooooooooo  ............XXXXXXXXXX    oooooooooo",
"oooooooooooo                        oooooooooooo",
"oooooooooooo                        oooooooooooo",
"oooooooooooooooooooooooooooooooooooooooooooooooo",
"oooooooooooooooooooooooooooooooooooooooooooooooo",
"oooooooooooooooooooooooooooooooooooooooooooooooo",
"oooooooooooooooooooooooooooooooooooooooooooooooo",
"oooooooooooooooooooooooooooooooooooooooooooooooo",
"oooooooooooooooooooooooooooooooooooooooooooooooo",
"oooooooooooooooooooooooooooooooooooooooooooooooo",
"oooooooooooooooooooooooooooooooooooooooooooooooo",
"oooooooooooooooooooooooooooooooooooooooooooooooo",
"oooooooooooooooooooooooooooooooooooooooooooooooo",
"oooooooooooooooooooooooooooooooooooooooooooooooo",
"oooooooooooooooooooooooooooooooooooooooooooooooo",
"oooooooooooooooooooooooooooooooooooooooooooooooo",
"oooooooooooooooooooooooooooooooooooooooooooooooo",
"oooooooooooooooooooooooooooooooooooooooooooooooo"
};
