/* XPM */
static char *result[] = {
/* columns rows colors chars-per-pixel */
"48 48 4 1 ",
"  c #925D00",
". c #FF7919",
"X c #FFD6B7",
"o c None",
/* pixels */
"oooooooooooooooooooooooooooooooooooooooooooooooo",
"oooooooooooooooooooooooooooooooooooooooooooooooo",
"oooooooooooooooooooooooooooooooooooooooooooooooo",
"oooooooooooooooooooooooooooooooooooooooooooooooo",
"oooooooooooooooooooooooooooooooooooooooooooooooo",
"oooooooooooooooooooooooooooooooooooooooooooooooo",
"oooooooooooooooooooooooooooooooooooooooooooooooo",
"oooooooooooooooooooooooooooooooooooooooooooooooo",
"oooooooooooooooooooooooooooooooooooooooooooooooo",
"oooooooooooooooooooooooooooooooooooooooooooooooo",
"oooooooooooooooooooooooooooooooooooooooooooooooo",
"oooooooooooooooooooooooooooooooooooooooooooooooo",
"oooooooooooooooooooooooooooooooooooooooooooooooo",
"oooooooooooooooooooooooooooooooooooooooooooooooo",
"oooooooooooooooooooooooooooooooooooooooooooooooo",
"oooooooooooooo            oooooooooooooooooooooo",
"oooooooooooooo            oooooooooooooooooooooo",
"oooooooooooo  XXXXXX......    oooooooooooooooooo",
"oooooooooooo  XXXXXX......    oooooooooooooooooo",
"oooooooooo  XXXX..............  oooooooooooooooo",
"oooooooooo  XXXX..............  oooooooooooooooo",
"oooooooo  XXXX..................  oooooooooooooo",
"oooooooo  XXXX..................  oooooooooooooo",
"oooooooo  XX......................  oooooooooooo",
"oooooooo  XX......................  oooooooooooo",
"oooooooo  XX........................  oooooooooo",
"oooooooo  XX........................  oooooooooo",
"oooooooo  ......................XXXX  oooooooooo",
"oooooooo  ......................XXXX  oooooooooo",
"oooooooooo  ................XXXXXX..  oooooooooo",
"oooooooooo  ................XXXXXX..  oooooooooo",
"oooooooooooo                        oooooooooooo",
"oooooooooooo                        oooooooooooo",
"oooooooooooooooooooooooooooooooooooooooooooooooo",
"oooooooooooooooooooooooooooooooooooooooooooooooo",
"oooooooooooooooooooooooooooooooooooooooooooooooo",
"oooooooooooooooooooooooooooooooooooooooooooooooo",
"oooooooooooooooooooooooooooooooooooooooooooooooo",
"oooooooooooooooooooooooooooooooooooooooooooooooo",
"oooooooooooooooooooooooooooooooooooooooooooooooo",
"oooooooooooooooooooooooooooooooooooooooooooooooo",
"oooooooooooooooooooooooooooooooooooooooooooooooo",
"oooooooooooooooooooooooooooooooooooooooooooooooo",
"oooooooooooooooooooooooooooooooooooooooooooooooo",
"oooooooooooooooooooooooooooooooooooooooooooooooo",
"oooooooooooooooooooooooooooooooooooooooooooooooo",
"oooooooooooooooooooooooooooooooooooooooooooooooo",
"oooooooooooooooooooooooooooooooooooooooooooooooo"
};
