/* XPM */
static char *result[] = {
/* columns rows colors chars-per-pixel */
"48 48 4 1 ",
"  c #925D00",
". c #FF7919",
"X c #FFD6B7",
"o c None",
/* pixels */
"oooooooooooooooooooooooooooooooooooooooooooooooo",
"oooooooooooooooooooooooooooooooooooooooooooooooo",
"oooooooooooooooooooooooooooooooooooooooooooooooo",
"oooooooooooooooooooooooooooooooooooooooooooooooo",
"oooooooooooooooooooooooooooooooooooooooooooooooo",
"oooooooooooooooooooooooooooooooooooooooooooooooo",
"oooooooooooooooooooooooooooooooooooooooooooooooo",
"oooooooooooooooooooooooooooooooooooooooooooooooo",
"oooooooooooooooooooooooooooooooooooooooooooooooo",
"oooooooooooooooooooooooooooooooooooooooooooooooo",
"oooooooooooooooooooooooooooooooooooooooooooooooo",
"oooooooooooooooooooooooooooooooooooooooooooooooo",
"oooooooooooooooooooooooooooooooooooooooooooooooo",
"oooooooooooooooooooooooooooooooooooooooooooooooo",
"oooooooooooooooooooooooooooooooooooooooooooooooo",
"oooooooooooooooooooooooooooo        oooooooooooo",
"oooooooooooooooooooooooooooo        oooooooooooo",
"oooooooooooooooooooooooooo  XXXXXXXX  oooooooooo",
"oooooooooooooooooooooooooo  XXXXXXXX  oooooooooo",
"oooooooooooooooooooooooo  ........XXXX  oooooooo",
"oooooooooooooooooooooooo  ........XXXX  oooooooo",
"oooooooooooooooooooooooo  ..........XX  oooooooo",
"oooooooooooooooooooooooo  ..........XX  oooooooo",
"oooooooooooooooooooooo  ............XX  oooooooo",
"oooooooooooooooooooooo  ............XX  oooooooo",
"oooooooooooooooooooo  ..............XX  oooooooo",
"oooooooooooooooooooo  ..............XX  oooooooo",
"oooooooooooooooo    ................XX  oooooooo",
"oooooooooooooooo    ................XX  oooooooo",
"oooooooooooo    ..XXXXXXXX..........  oooooooooo",
"oooooooooooo    ..XXXXXXXX..........  oooooooooo",
"oooooooooooooo                      oooooooooooo",
"oooooooooooooo                      oooooooooooo",
"oooooooooooooooooooooooooooooooooooooooooooooooo",
"oooooooooooooooooooooooooooooooooooooooooooooooo",
"oooooooooooooooooooooooooooooooooooooooooooooooo",
"oooooooooooooooooooooooooooooooooooooooooooooooo",
"oooooooooooooooooooooooooooooooooooooooooooooooo",
"oooooooooooooooooooooooooooooooooooooooooooooooo",
"oooooooooooooooooooooooooooooooooooooooooooooooo",
"oooooooooooooooooooooooooooooooooooooooooooooooo",
"oooooooooooooooooooooooooooooooooooooooooooooooo",
"oooooooooooooooooooooooooooooooooooooooooooooooo",
"oooooooooooooooooooooooooooooooooooooooooooooooo",
"oooooooooooooooooooooooooooooooooooooooooooooooo",
"oooooooooooooooooooooooooooooooooooooooooooooooo",
"oooooooooooooooooooooooooooooooooooooooooooooooo",
"oooooooooooooooooooooooooooooooooooooooooooooooo"
};
