/* XPM */
static char *result[] = {
/* columns rows colors chars-per-pixel */
"48 48 4 1 ",
"  c #925D00",
". c #FF7919",
"X c #FFD6B7",
"o c None",
/* pixels */
"oooooooooooooooooooooooooooooooooooooooooooooooo",
"oooooooooooooooooooooooooooooooooooooooooooooooo",
"oooooooooooooooooooooooooooooooooooooooooooooooo",
"oooooooooooooooooooooooooooooooooooooooooooooooo",
"oooooooooooooooooooooooooooooooooooooooooooooooo",
"oooooooooooooooooooooooooooooooooooooooooooooooo",
"oooooooooooooooooooooooooooooooooooooooooooooooo",
"oooooooooooooooooooooooooooooooooooooooooooooooo",
"oooooooooooooooooooooooooooooooooooooooooooooooo",
"oooooooooooooooooooooooooooooooooooooooooooooooo",
"oooooooooooooooooooooooooooooooooooooooooooooooo",
"oooooooooooooooooooooooooooooooooooooooooooooooo",
"oooooooooooooooooooooooooooooooooooooooooooooooo",
"oooooooooooooooooooooooooooooooooooooooooooooooo",
"oooooooooooooooooooooooooooooooooooooooooooooooo",
"oooooooooooo        oooooooooooooooooooooooooooo",
"oooooooooooo        oooooooooooooooooooooooooooo",
"oooooooooo  XXXXXXXX  oooooooooooooooooooooooooo",
"oooooooooo  XXXXXXXX  oooooooooooooooooooooooooo",
"oooooooo  XXXX........  oooooooooooooooooooooooo",
"oooooooo  XXXX........  oooooooooooooooooooooooo",
"oooooooo  XX..........  oooooooooooooooooooooooo",
"oooooooo  XX..........  oooooooooooooooooooooooo",
"oooooooo  XX............  oooooooooooooooooooooo",
"oooooooo  XX............  oooooooooooooooooooooo",
"oooooooo  XX..............  oooooooooooooooooooo",
"oooooooo  XX..............  oooooooooooooooooooo",
"oooooooo  XX................    oooooooooooooooo",
"oooooooo  XX................    oooooooooooooooo",
"oooooooooo  ..........XXXXXXXX..    oooooooooooo",
"oooooooooo  ..........XXXXXXXX..    oooooooooooo",
"oooooooooooo                      oooooooooooooo",
"oooooooooooo                      oooooooooooooo",
"oooooooooooooooooooooooooooooooooooooooooooooooo",
"oooooooooooooooooooooooooooooooooooooooooooooooo",
"oooooooooooooooooooooooooooooooooooooooooooooooo",
"oooooooooooooooooooooooooooooooooooooooooooooooo",
"oooooooooooooooooooooooooooooooooooooooooooooooo",
"oooooooooooooooooooooooooooooooooooooooooooooooo",
"oooooooooooooooooooooooooooooooooooooooooooooooo",
"oooooooooooooooooooooooooooooooooooooooooooooooo",
"oooooooooooooooooooooooooooooooooooooooooooooooo",
"oooooooooooooooooooooooooooooooooooooooooooooooo",
"oooooooooooooooooooooooooooooooooooooooooooooooo",
"oooooooooooooooooooooooooooooooooooooooooooooooo",
"oooooooooooooooooooooooooooooooooooooooooooooooo",
"oooooooooooooooooooooooooooooooooooooooooooooooo",
"oooooooooooooooooooooooooooooooooooooooooooooooo"
};
