/* XPM */
static char *result[] = {
/* columns rows colors chars-per-pixel */
"48 48 4 1 ",
"  c #925D00",
". c #FF7919",
"X c #FFD6B7",
"o c None",
/* pixels */
"oooooooooooooooooooooooooooooooooooooooooooooooo",
"oooooooooooooooooooooooooooooooooooooooooooooooo",
"oooooooooooooooooooooooooooooooooooooooooooooooo",
"oooooooooooooooooooooooooooooooooooooooooooooooo",
"oooooooooooooooooooooooooooooooooooooooooooooooo",
"oooooooooooooooooooooooooooooooooooooooooooooooo",
"oooooooooooooooooooooooooooooooooooooooooooooooo",
"oooooooooooooooooooooooooooooooooooooooooooooooo",
"oooooooooooooooooooooooooooooooooooooooooooooooo",
"oooooooooooooooooooooooooooooooooooooooooooooooo",
"oooooooooooooooooooooooooooooooooooooooooooooooo",
"oooooooooooooooooooooooooooooooooooooooooooooooo",
"oooooooooooooooooooooooooooooooooooooooooooooooo",
"oooooooooooooooooooooooooooooooooooooooooooooooo",
"oooooooooooooooooooooooooooooooooooooooooooooooo",
"oooooooooooooooooooooooooooo        oooooooooooo",
"oooooooooooooooooooooooooooo        oooooooooooo",
"oooooooooooooooooooooooooo  ..XXXXXX  oooooooooo",
"oooooooooooooooooooooooooo  ..XXXXXX  oooooooooo",
"oooooooooooooooooooooooo  ........XXXX  oooooooo",
"oooooooooooooooooooooooo  ........XXXX  oooooooo",
"oooooooooooooooooooooo  ............XX  oooooooo",
"oooooooooooooooooooooo  ............XX  oooooooo",
"oooooooooooooooooooo  ..............XX  oooooooo",
"oooooooooooooooooooo  ..............XX  oooooooo",
"oooooooooooooooooo  ................XX  oooooooo",
"oooooooooooooooooo  ................XX  oooooooo",
"oooooooooooooo    ....................  oooooooo",
"oooooooooooooo    ....................  oooooooo",
"oooooooooo    XXXXXXXXXX............  oooooooooo",
"oooooooooo    XXXXXXXXXX............  oooooooooo",
"oooooooooooo                        oooooooooooo",
"oooooooooooo                        oooooooooooo",
"oooooooooooooooooooooooooooooooooooooooooooooooo",
"oooooooooooooooooooooooooooooooooooooooooooooooo",
"oooooooooooooooooooooooooooooooooooooooooooooooo",
"oooooooooooooooooooooooooooooooooooooooooooooooo",
"oooooooooooooooooooooooooooooooooooooooooooooooo",
"oooooooooooooooooooooooooooooooooooooooooooooooo",
"oooooooooooooooooooooooooooooooooooooooooooooooo",
"oooooooooooooooooooooooooooooooooooooooooooooooo",
"oooooooooooooooooooooooooooooooooooooooooooooooo",
"oooooooooooooooooooooooooooooooooooooooooooooooo",
"oooooooooooooooooooooooooooooooooooooooooooooooo",
"oooooooooooooooooooooooooooooooooooooooooooooooo",
"oooooooooooooooooooooooooooooooooooooooooooooooo",
"oooooooooooooooooooooooooooooooooooooooooooooooo",
"oooooooooooooooooooooooooooooooooooooooooooooooo"
};
