/* XPM */
static char *result[] = {
/* columns rows colors chars-per-pixel */
"48 48 5 1 ",
"  c #0F0000",
". c #9F001A",
"X c #B2004A",
"o c #C55DAA",
"O c #A870C4",
/* pixels */
"                                                ",
"                                                ",
"    ........................................    ",
"    ........................................    ",
"  ....XXXXXXXXXXXXXXXXXXXXXXXXXXXXXXXXXXXX....  ",
"  ....XXXXXXXXXXXXXXXXXXXXXXXXXXXXXXXXXXXX....  ",
"  ..XXXXooooooooooooooooooooooooooooooooXXXX..  ",
"  ..XXXXooooooooooooooooooooooooooooooooXXXX..  ",
"  ..XXoooo                            ooooXX..  ",
"  ..XXoooo                            ooooXX..  ",
"  ..XXoo                                ooXX..  ",
"  ..XXoo                                ooXX..  ",
"  ..XXoo                                ooXX..  ",
"  ..XXoo                                ooXX..  ",
"  ..XXoo                                ooXX..  ",
"  ..XXoo                                ooXX..  ",
"  ..XXoo                                ooXX..  ",
"  ..XXoo                                ooXX..  ",
"  ..XXoo                    OO          ooXX..  ",
"  ..XXoo                    OO          ooXX..  ",
"  ..XXoo            OO    OO            ooXX..  ",
"  ..XXoo            OO    OO            ooXX..  ",
"  ..XXoo              OO                ooXX..  ",
"  ..XXoo              OO                ooXX..  ",
"  ..XXoo                OO              ooXX..  ",
"  ..XXoo                OO              ooXX..  ",
"  ..XXoo            OO    OO            ooXX..  ",
"  ..XXoo            OO    OO            ooXX..  ",
"  ..XXoo          OO                    ooXX..  ",
"  ..XXoo          OO                    ooXX..  ",
"  ..XXoo                                ooXX..  ",
"  ..XXoo                                ooXX..  ",
"  ..XXoo                                ooXX..  ",
"  ..XXoo                                ooXX..  ",
"  ..XXoo                                ooXX..  ",
"  ..XXoo                                ooXX..  ",
"  ..XXoo                                ooXX..  ",
"  ..XXoo                                ooXX..  ",
"  ..XXoooo                            ooooXX..  ",
"  ..XXoooo                            ooooXX..  ",
"  ..XXXXooooooooooooooooooooooooooooooooXXXX..  ",
"  ..XXXXooooooooooooooooooooooooooooooooXXXX..  ",
"  ....XXXXXXXXXXXXXXXXXXXXXXXXXXXXXXXXXXXX....  ",
"  ....XXXXXXXXXXXXXXXXXXXXXXXXXXXXXXXXXXXX....  ",
"    ........................................    ",
"    ........................................    ",
"                                                ",
"                                                "
};
