/* XPM */
static char *result[] = {
/* columns rows colors chars-per-pixel */
"48 48 6 1 ",
"  c black",
". c #FF0099",
"X c #FF57AE",
"o c #FEACD6",
"O c #FCDFEE",
"+ c None",
/* pixels */
"++++++++++++++++++++++++++++++++++++++++++++++++",
"++++++++++++++++++++++++++++++++++++++++++++++++",
"++++++++++++++++++++++++++++++++++++++++++++++++",
"++++++++++++++++++++++++++++++++++++++++++++++++",
"++++++++++++++++++++++++++++++++++++++++++++++++",
"++++++++++++++++++++++++++++++++++++++++++++++++",
"++++++++++++++++++++++++++++++++++++++++++++++++",
"++++++++++++++++++++++++++++++++++++++++++++++++",
"++++++++++++++++++++++++..++++++++++++++++++++++",
"++++++++++++++++++++++++..++++++++++++++++++++++",
"++++++++++++++++++++..++++++++++++++++++++++++++",
"++++++++++++++++++++..++++++++++++++++++++++++++",
"++++++++++++++++++..++++..++++++++++++++++++++++",
"++++++++++++++++++..++++..++++++++++++++++++++++",
"++++++++++++++++++..XX++++++++++++++++++++++++++",
"++++++++++++++++++..XX++++++++++++++++++++++++++",
"++++++++++++++++++++..XX++..++++++++++++++++++++",
"++++++++++++++++++++..XX++..++++++++++++++++++++",
"++++++++++++++++++++..XXXX++..++++++++++++++++++",
"++++++++++++++++++++..XXXX++..++++++++++++++++++",
"++++++++++++++++++..XXXXooXX..++++++++++++++++++",
"++++++++++++++++++..XXXXooXX..++++++++++++++++++",
"++++++++++++++++++..XXooooXX..++++++++++++++++++",
"++++++++++++++++++..XXooooXX..++++++++++++++++++",
"++++++++++++++++..XXooooooooXX..++++++++++++++++",
"++++++++++++++++..XXooooooooXX..++++++++++++++++",
"++++++++++++++++..ooooOOOOoooo..++++++++++++++++",
"++++++++++++++++..ooooOOOOoooo..++++++++++++++++",
"++++++++++++++++..oo  OOOO  oo..++++++++++++++++",
"++++++++++++++++..oo  OOOO  oo..++++++++++++++++",
"++++++++++++++++..oo  OOOO  oo..++++++++++++++++",
"++++++++++++++++..oo  OOOO  oo..++++++++++++++++",
"++++++++++++++++..XXooooooooXX..++++++++++++++++",
"++++++++++++++++..XXooooooooXX..++++++++++++++++",
"++++++++++++++++++XXXXXXXXXX..++++++++++++++++++",
"++++++++++++++++++XXXXXXXXXX..++++++++++++++++++",
"++++++++++++++++++++........++++++++++++++++++++",
"++++++++++++++++++++........++++++++++++++++++++",
"++++++++++++++++++++++++++++++++++++++++++++++++",
"++++++++++++++++++++++++++++++++++++++++++++++++",
"++++++++++++++++++++++++++++++++++++++++++++++++",
"++++++++++++++++++++++++++++++++++++++++++++++++",
"++++++++++++++++++++++++++++++++++++++++++++++++",
"++++++++++++++++++++++++++++++++++++++++++++++++",
"++++++++++++++++++++++++++++++++++++++++++++++++",
"++++++++++++++++++++++++++++++++++++++++++++++++",
"++++++++++++++++++++++++++++++++++++++++++++++++",
"++++++++++++++++++++++++++++++++++++++++++++++++"
};
